<svg xmlns="http://www.w3.org/2000/svg" viewBox="0 0 1561.31 1148.48"><defs><style>.cls-1{fill:#fff;}</style></defs><g id="Layer_2" data-name="Layer 2"><g id="Layer_1-2" data-name="Layer 1"><rect class="cls-1" x="1395.79" width="165.52" height="232.43"/><path class="cls-1" d="M0,0V180.79H1419.26V0ZM815.87,166.7h-756V16.44h756Z"/><rect class="cls-1" x="300.13" y="175.7" width="61.83" height="410.09"/><rect class="cls-1" x="888.66" y="178.24" width="46.17" height="410.09"/><rect class="cls-1" y="180.79" width="19.18" height="405"/><path class="cls-1" d="M934.83,585.79v432H765.46a212.26,212.26,0,0,0,6.2-51.07c0-117-94.87-211.89-211.9-211.89S347.87,849.7,347.87,966.72a212.26,212.26,0,0,0,6.2,51.07H0v-432Z"/><path class="cls-1" d="M562.31,782.22A183.13,183.13,0,1,0,745.44,965.35,183.13,183.13,0,0,0,562.31,782.22Zm0,282.52a97,97,0,1,1,97-97A97,97,0,0,1,562.31,1064.74Z"/><path class="cls-1" d="M928.57,204.66v813.13h203.48V204.66Zm187.3,538.63a16.24,16.24,0,0,1-16.24,16.24H951.07a16.24,16.24,0,0,1-16.24-16.24V617.38a5.9,5.9,0,0,1,3.23-5.18,5.74,5.74,0,0,1,4.05-.25l169.71,120.8.33.24a9.22,9.22,0,0,1,3.72,7.36Zm0-41.19a3.78,3.78,0,0,1-2.61,3.23,3.43,3.43,0,0,1-2.44-.34h0L945.74,587.49h0a44.36,44.36,0,0,1-5.81-8.54,45.67,45.67,0,0,1-5.09-20.24V241.76a16.24,16.24,0,0,1,16.24-16.23h148.56a16.24,16.24,0,0,1,16.24,16.23Z"/><path class="cls-1" d="M1403.22,204.66v813.13H1199.74V204.66Zm-187.3,538.63a16.24,16.24,0,0,0,16.24,16.24h148.56A16.24,16.24,0,0,0,1397,743.29V617.38a5.9,5.9,0,0,0-3.23-5.18,5.74,5.74,0,0,0-4-.25L1220,732.75l-.33.24a9.22,9.22,0,0,0-3.72,7.36Zm0-41.19a3.78,3.78,0,0,0,2.61,3.23A3.43,3.43,0,0,0,1221,705h0l165.07-117.5h0a44.36,44.36,0,0,0,5.81-8.54A45.67,45.67,0,0,0,1397,558.7V241.76a16.24,16.24,0,0,0-16.24-16.23H1232.16a16.24,16.24,0,0,0-16.24,16.23Z"/><path class="cls-1" d="M1479.53,227.09c9.52,45.19,17.94,93.61,24.52,145a1829.52,1829.52,0,0,1,14.35,268.44,9.66,9.66,0,0,0,1.82,5.48,10.32,10.32,0,0,0,7.83,3.91h16.17q.52,84.13,1,168.26l-73-.52a8.44,8.44,0,0,0-8.35,8.87q-1,83.48-2.08,167l-54.66,43.82a16.54,16.54,0,0,0-3.71,5.87,16.19,16.19,0,0,0-1,5.28,9.88,9.88,0,0,1-2.15,5.09c-3.43,4.13-9.07,3.58-9.59,3.52l-450.2,1.37A130.33,130.33,0,0,1,884.16,1016l67.29,1.28a11.8,11.8,0,0,0-7.82,4c-1.57,2-1.84,4-2.34,7.63a30.56,30.56,0,0,0,.58,11.35c.74,3,1.17,4.7,2.74,6.06a8.74,8.74,0,0,0,6.46,1.76l433.56-2.35a13.41,13.41,0,0,0,8.42-3.91c5.25-5.52,2.73-13.52,2.54-14.09-2-5.9-7.76-10.13-14.67-10.76l19.56-271.56-.78-534.91"/><polygon class="cls-1" points="1545.26 844.31 1545.26 917.5 1494.13 964.2 1494.13 844.31 1545.26 844.31"/></g></g></svg>